<svg xmlns="http://www.w3.org/2000/svg" width="24" height="24" viewBox="0 0 24 24">
    <g fill="none" fill-rule="evenodd">
        <path d="M0 0H24V24H0z"/>
        <g fill="#000" fill-rule="nonzero">
            <path d="M1.5 14.5v1c0 .3.2.5.5.5h12c.3 0 .5-.2.5-.5v-1h-13zM11 .8L11 3.5 13.7 3.5z" transform="translate(4 4)"/>
            <path d="M15.5 6.5h-1v-2h-4c-.3 0-.5-.2-.5-.5V0H2c-.3 0-.5.2-.5.5v6h-1c-.3 0-.5.2-.5.5v6c0 .3.2.5.5.5h15c.3 0 .5-.2.5-.5V7c0-.3-.2-.5-.5-.5zm-9.7 4.4c.15 0 .25 0 .35-.05.1-.05.25-.1.35-.15v.65c-.25.1-.5.15-.8.15-.45 0-.75-.1-1-.4-.25-.3-.35-.6-.35-1.1 0-.3.05-.55.15-.8.1-.25.25-.4.5-.5.25-.1.45-.2.75-.2s.6.05.9.2l-.25.6c-.1-.05-.2-.1-.3-.1-.1 0-.2-.05-.35-.05-.2 0-.35.1-.45.25-.1.15-.15.35-.15.6 0 .65.2.9.65.9zm2-1.35c.05.05.2.1.45.25.25.1.4.25.5.35.1.1.15.3.15.5s-.05.35-.15.45c-.1.1-.2.25-.4.3-.2.05-.35.1-.6.1-.2 0-.35 0-.5-.05-.15-.05-.25-.05-.4-.15v-.7c.15.1.3.15.45.2.15.05.3.05.45.05.1 0 .2 0 .25-.05.05-.05.1-.1.1-.15 0-.05 0-.05-.05-.1L8 10.5c-.05-.05-.15-.1-.4-.2-.2-.1-.35-.15-.4-.25-.05-.1-.15-.15-.2-.25-.05-.1-.05-.2-.05-.35 0-.25.1-.45.3-.6.2-.15.45-.2.8-.2.3 0 .6.05.9.2l-.25.6c-.25-.1-.5-.2-.7-.2-.1 0-.15 0-.2.05-.05.05-.05.1-.05.15-.05 0 0 .05.05.1zm3.1 1.95H10l-.95-2.85h.85l.4 1.45c.1.3.1.55.15.65 0-.1.05-.2.05-.35 0-.15.05-.25.05-.3l.4-1.45h.85l-.9 2.85z" transform="translate(4 4)"/>
        </g>
    </g>
</svg>
