<svg xmlns="http://www.w3.org/2000/svg" width="24" height="24" viewBox="0 0 24 24">
    <g fill="none" fill-rule="evenodd">
        <path d="M0 0H24V24H0z"/>
        <g fill="#000" fill-rule="nonzero">
            <path d="M1.5 14.5v1c0 .3.2.5.5.5h12c.3 0 .5-.2.5-.5v-1h-13zM11 .8L11 3.5 13.7 3.5zM5.45 9.25h-.2v.65h.15c.1 0 .2-.05.3-.1.1-.05.1-.15.1-.25 0-.2-.1-.3-.35-.3zM8 9.25h-.2v1.6h.15c.25 0 .4-.05.5-.2.1-.15.15-.35.15-.6s-.05-.45-.15-.6c-.1-.15-.2-.2-.45-.2z" transform="translate(4 4)"/>
            <path d="M15.5 6.5h-1v-2h-4c-.3 0-.5-.2-.5-.5V0H2c-.3 0-.5.2-.5.5v6h-1c-.3 0-.5.2-.5.5v6c0 .3.2.5.5.5h15c.3 0 .5-.2.5-.5V7c0-.3-.2-.5-.5-.5zm-9.2 3.8c-.2.15-.45.25-.8.25h-.2v.95h-.8V8.65h1c.35 0 .65.1.8.25.15.15.25.4.25.65 0 .3-.05.55-.25.75zm2.75.8c-.25.25-.65.4-1.1.4h-.9V8.65h1c.45 0 .8.1 1.05.35.25.25.35.55.35 1 0 .5-.15.85-.4 1.1zm2.6-1.85h-.95v.55h.85v.6h-.85v1.1h-.75V8.65h1.7v.6z" transform="translate(4 4)"/>
        </g>
    </g>
</svg>
