<svg xmlns="http://www.w3.org/2000/svg" width="24" height="24" viewBox="0 0 24 24">
    <g fill="none" fill-rule="evenodd">
        <path d="M0 0H24V24H0z"/>
        <path fill="#54B0EC" fill-rule="nonzero" d="M19.87 9.937c-.126-.17-.325-.27-.537-.27h-12c-.292 0-.55.19-.637.47l-1.363 4.429V6.333h3.644l1.133 1.704c.124.186.333.297.557.296H16V9h1.333V7.667c0-.369-.298-.667-.666-.667h-5.644L9.89 5.297c-.124-.186-.333-.298-.557-.297H4.667C4.298 5 4 5.298 4 5.667V19h.017c-.006.14.034.28.113.396.126.17.325.27.537.27h12c.292 0 .55-.19.637-.47l2.667-8.667c.062-.202.025-.421-.101-.592z"/>
    </g>
</svg>
